<svg width="103" height="54" viewBox="0 0 103 54" fill="none" xmlns="http://www.w3.org/2000/svg">
<path d="M59.996 4.5V19.5H40.496V4.5H43.9179C43.6444 4.03906 43.5077 3.53906 43.5077 3C43.5077 2.58594 43.5858 2.19922 43.7421 1.83984C43.8983 1.48047 44.1093 1.16016 44.3749 0.878906C44.6405 0.597656 44.9569 0.382812 45.3241 0.234375C45.6913 0.0859375 46.0819 0.0078125 46.496 0C47.2538 0 47.9608 0.175781 48.6171 0.527344C49.2733 0.878906 49.8163 1.375 50.246 2.01562C50.6679 1.38281 51.2069 0.890625 51.8632 0.539062C52.5194 0.1875 53.2304 0.0078125 53.996 0C54.4101 0 54.7968 0.078125 55.1562 0.234375C55.5155 0.390625 55.8358 0.605469 56.1171 0.878906C56.3983 1.15234 56.6132 1.46875 56.7616 1.82812C56.9101 2.1875 56.9882 2.57812 56.996 3C56.996 3.26562 56.9608 3.52344 56.8905 3.77344C56.8202 4.02344 56.7147 4.26562 56.5741 4.5H59.996ZM49.496 6H41.996V18H49.496V6ZM49.496 4.5C49.496 4.08594 49.4179 3.69922 49.2616 3.33984C49.1054 2.98047 48.8905 2.66016 48.6171 2.37891C48.3437 2.09766 48.0272 1.88281 47.6679 1.73438C47.3085 1.58594 46.9179 1.50781 46.496 1.5C46.2851 1.5 46.0897 1.53906 45.9101 1.61719C45.7304 1.69531 45.5741 1.80078 45.4413 1.93359C45.3085 2.06641 45.1991 2.22656 45.1132 2.41406C45.0272 2.60156 44.9882 2.79688 44.996 3C44.996 3.21094 45.0351 3.40625 45.1132 3.58594C45.1913 3.76562 45.2968 3.92188 45.4296 4.05469C45.5624 4.1875 45.7226 4.29688 45.9101 4.38281C46.0976 4.46875 46.2929 4.50781 46.496 4.5H49.496ZM53.996 1.5C53.5819 1.5 53.1952 1.57812 52.8358 1.73438C52.4765 1.89062 52.1562 2.10547 51.8749 2.37891C51.5937 2.65234 51.3788 2.96875 51.2304 3.32812C51.0819 3.6875 51.0038 4.07812 50.996 4.5H53.996C54.2069 4.5 54.4022 4.46094 54.5819 4.38281C54.7616 4.30469 54.9179 4.19922 55.0507 4.06641C55.1835 3.93359 55.2929 3.77344 55.3788 3.58594C55.4647 3.39844 55.5038 3.20312 55.496 3C55.496 2.78906 55.4569 2.59375 55.3788 2.41406C55.3007 2.23438 55.1952 2.07812 55.0624 1.94531C54.9296 1.8125 54.7694 1.70312 54.5819 1.61719C54.3944 1.53125 54.1991 1.49219 53.996 1.5ZM58.496 6H50.996V18H58.496V6Z" fill="white"/>
<path d="M20.064 44.5L13.376 23.444H15.68L22.176 43.924H20.768L26.4 23.444H28.672L22.4 44.5H20.064ZM6.24 44.5L0 23.444H2.496L8.256 43.924H6.912L13.216 23.444H15.104L8.576 44.5H6.24Z" fill="white"/>
<path d="M31.3358 44.5V31.412L33.1278 31.06L33.5117 34.42V44.5H31.3358ZM33.1278 36.18L32.5838 35.38C33.2878 34.036 34.0877 32.9907 34.9837 32.244C35.8797 31.476 36.8931 31.092 38.0238 31.092C38.4718 31.092 38.8984 31.156 39.3037 31.284C39.7091 31.3907 40.0611 31.5613 40.3597 31.796L39.4318 33.62C39.1971 33.428 38.8877 33.2787 38.5037 33.172C38.1411 33.0653 37.7677 33.012 37.3838 33.012C36.5518 33.012 35.7837 33.2893 35.0798 33.844C34.3971 34.3773 33.7464 35.156 33.1278 36.18Z" fill="white"/>
<path d="M47.984 44.692C46.7467 44.692 45.6693 44.4147 44.752 43.86C43.8347 43.284 43.12 42.5053 42.608 41.524C42.096 40.5427 41.84 39.4333 41.84 38.196C41.84 36.8307 42.1387 35.604 42.736 34.516C43.3547 33.428 44.176 32.5747 45.2 31.956C46.2453 31.3373 47.3973 31.028 48.656 31.028C49.424 31.028 50.1173 31.156 50.736 31.412C51.376 31.6467 51.9413 32.0093 52.432 32.5C52.9227 32.9693 53.3173 33.5667 53.616 34.292L53.008 35.284C52.5813 34.4093 52.016 33.748 51.312 33.3C50.6293 32.852 49.84 32.628 48.944 32.628C48.0267 32.628 47.2053 32.852 46.48 33.3C45.7547 33.748 45.1893 34.3773 44.784 35.188C44.3787 35.9773 44.176 36.9053 44.176 37.972C44.176 38.9533 44.3467 39.8387 44.688 40.628C45.0507 41.396 45.552 42.004 46.192 42.452C46.832 42.9 47.6 43.124 48.496 43.124C49.2853 43.124 50.0747 42.9213 50.864 42.516C51.6747 42.0893 52.368 41.364 52.944 40.34L53.84 40.884C53.3707 41.7373 52.8373 42.452 52.24 43.028C51.664 43.5827 51.0133 43.9987 50.288 44.276C49.584 44.5533 48.816 44.692 47.984 44.692ZM53.136 44.692L52.784 41.716V34.196L53.136 31.444L54.96 31.06V44.308L53.136 44.692Z" fill="white"/>
<path d="M66.1375 44.692C65.0495 44.692 64.0682 44.4467 63.1935 43.956C62.3402 43.444 61.6895 42.6867 61.2415 41.684L61.8175 40.788C62.2655 41.556 62.8308 42.1427 63.5135 42.548C64.2175 42.932 65.0068 43.124 65.8815 43.124C66.8202 43.124 67.6415 42.9 68.3455 42.452C69.0708 42.004 69.6362 41.3853 70.0415 40.596C70.4468 39.7853 70.6495 38.8467 70.6495 37.78C70.6495 36.82 70.4788 35.956 70.1375 35.188C69.7962 34.42 69.3055 33.812 68.6655 33.364C68.0255 32.916 67.2468 32.692 66.3295 32.692C65.5615 32.692 64.7722 32.8947 63.9615 33.3C63.1508 33.7053 62.4575 34.4307 61.8815 35.476L60.9855 34.836C61.7108 33.5773 62.5535 32.6387 63.5135 32.02C64.4948 31.4013 65.6148 31.092 66.8735 31.092C68.1108 31.092 69.1882 31.3693 70.1055 31.924C71.0228 32.4787 71.7268 33.2467 72.2175 34.228C72.7295 35.188 72.9855 36.2973 72.9855 37.556C72.9855 38.9 72.6868 40.116 72.0895 41.204C71.4922 42.2707 70.6708 43.124 69.6255 43.764C68.6015 44.3827 67.4388 44.692 66.1375 44.692ZM59.9295 53.748V31.444L61.6895 31.06L62.0735 34.004V53.396L59.9295 53.748Z" fill="white"/>
<path d="M79.8118 44.628C78.8518 44.628 78.1691 44.4147 77.7637 43.988C77.3584 43.54 77.1557 42.8147 77.1557 41.812V21.94L79.3317 21.588V41.396C79.3317 41.9933 79.4384 42.4413 79.6517 42.74C79.8651 43.0387 80.2384 43.188 80.7718 43.188C80.9424 43.188 81.1237 43.1773 81.3158 43.156C81.5078 43.1133 81.7211 43.06 81.9557 42.996L82.3077 44.052C81.9024 44.2013 81.4971 44.34 81.0918 44.468C80.7077 44.5747 80.2811 44.628 79.8118 44.628Z" fill="white"/>
<path d="M91.8593 44.5V23.444H94.2913V44.5H91.8593ZM83.8913 25.332V23.444H102.259V25.332H83.8913Z" fill="white"/>
</svg>
